<svg width="1334" height="789" viewBox="0 0 1334 789" fill="none" xmlns="http://www.w3.org/2000/svg">
<mask id="mask0_1_37" style="mask-type:luminance" maskUnits="userSpaceOnUse" x="0" y="0" width="526" height="789">
<path d="M525.173 0H0V788.919H525.173V0Z" fill="white"/>
</mask>
<g mask="url(#mask0_1_37)">
<path d="M434.97 584.11L428.95 608.27L423.5 630.68L419.57 683.37C418.97 691.39 417.91 698.89 415.85 706.6C413.56 715.13 409.45 722.4 403.85 729.28C392.61 743.13 378.25 753.79 362.12 761.44C354.84 764.9 347.83 767.58 340.23 770.26C321.16 777 301.87 781.47 281.85 784.54C259.33 788 237.126 789.4 214.321 788.78C198.11 788.34 182.649 786.41 166.701 783.81C147.251 780.64 128.462 776.13 109.776 769.83C86.31 761.92 63.983 751.76 43.617 737.68C37.332 733.34 31.641 728.82 26.396 723.31C19.334 715.87 12.937 708.36 8.32202 699.12C0.755022 683.97 0.0710166 669.19 0.0670166 652.27L0 367.46L0.0490112 161.16C0.0490112 142.81 5.27102 124.8 13.942 108.97C21.344 95.45 30.953 83.93 41.92 73.26C51.493 63.95 61.986 56.27 73.194 49.02C103.714 29.29 140.059 15.85 175.573 8.72996C189.957 5.84996 203.971 3.48997 218.645 2.10997C251.394 -0.960032 284.11 -0.819988 316.75 3.53001C335.22 5.98001 353.2 9.69998 371.17 13.87C374.46 14.68 376.18 16.88 376.2 20.17L376.46 68.03C393.6 77.58 408.57 86.85 422.79 100.38C435.85 113.06 443.85 124.02 450.44 141.17C464.06 148.01 477.04 155.51 489.3 164.6C497.06 170.36 503.49 176.99 509.96 184.1C519.54 194.45 527.85 209.79 524.36 224.33L517 255L510.32 281.66L503.8 307.99L497.2 334.27L490.26 362.41L482.66 392.82L472.36 434.12L457.88 492.21L447.47 533.96L434.98 584.11H434.97ZM66.042 112.69C77.939 96.6999 92.859 83.63 109.937 73.35C120.399 67.06 131.075 61.3799 142.458 56.8399C173.406 44.4799 206.155 38.45 239.435 37.74C279.21 36.91 314.97 44.33 352.04 57.89L352.08 35.13L326.17 29.48C298.92 24.91 271.66 23.06 244.045 24.64C203.944 26.93 166.987 32.92 129.467 47.53C115.878 52.82 103.227 59.05 90.71 66.59C77.327 74.65 65.225 84.3 54.254 95.39C45.913 103.82 39.146 113.09 33.825 123.59C29.653 131.81 27.232 140.05 26.021 149.19C24.091 163.74 26.2 178.05 32.664 191.18C37.739 201.48 43.97 210.76 52.788 218.43C50.327 214.02 47.839 210.25 46.374 205.58C44.341 199.11 42.719 192.68 42.34 185.84C40.866 159.09 50.215 133.96 66.038 112.7L66.042 112.69ZM412.86 174.64C416.92 180.52 418.93 186.95 418.47 194.01C417.69 206.28 411.92 214.27 404.55 223.96C404.19 224.35 404.68 224.02 405.09 223.72C409.91 219.44 413.85 214.57 417.44 209.24C425.6 197.14 430.79 183.15 430.56 168.36C430.38 156.03 424.99 141.73 417.96 131.78C409.95 120.45 400.03 111.68 388.66 103.68C372.98 92.66 355.83 84.25 337.7 77.81C305.57 66.41 271.96 60.87 237.827 62.02C224.176 62.48 211.02 63.54 197.623 65.87C177.829 69.33 158.83 75.1299 140.608 83.4499C124.482 90.8099 109.999 100.45 97.29 112.82C87.235 122.6 79.243 134.02 73.458 147.22C89.223 129.89 103.397 118.1 123.767 106.78C135.476 100.28 147.211 94.7 159.866 90.36C184.869 81.77 207.83 78.07 234.446 78.1C265.93 78.13 297 85.14 325.16 99.28C340.76 107.12 355.22 116.58 368.83 127.41C380.18 136.46 390.09 146.45 399.59 157.32C404.46 162.88 408.58 168.43 412.86 174.64ZM203.332 274.75C199.436 273.39 195.979 272.21 192.307 270.31C181.036 264.05 170.967 256 163.346 245.51C157.892 238 153.487 230.15 150.802 221.27C147.613 210.72 146.746 199.95 147.439 188.97C148.363 174.29 153.496 160.77 161.827 148.78C167.72 140.3 174.376 133.29 182.894 126.92C173.509 129.46 165.245 132.74 156.476 136.12C141.019 142.67 127.073 151.41 114.078 162.1C101.253 172.68 90.21 184.97 80.177 198.46C102.606 233.93 139.447 260.69 180.223 270.8C187.907 272.88 195.264 274.44 203.336 274.75H203.332ZM355.98 230.45C362.67 224.22 368.35 217.82 373.51 210.58L381.82 198.94L374.77 189.83C360.49 171.37 339.31 153.23 318.51 142.36C306.44 136.04 293.93 131.04 280.37 127.34C309.61 149.9 320.28 183.86 311.54 219.02C308.14 229.51 303.94 239.21 297.19 247.86C287.27 260.57 274.19 269.73 259.04 275.05C295.32 271.35 329.76 255.89 355.98 230.45ZM223.769 165.29C223.769 151.38 212.494 140.1 198.588 140.1C184.681 140.1 173.406 151.38 173.406 165.29C173.406 179.2 184.681 190.48 198.588 190.48C212.494 190.48 223.769 179.2 223.769 165.29ZM475 322.86L487.54 272.04L493.11 249.93L485.44 248.79C481.39 248.18 477.54 246.88 474.02 244.87C468.88 241.94 466.32 235.83 468.35 230.23C470.56 224.15 477.16 221.66 483.16 223.71C487.61 225.23 495.3 228.04 498.8 224.65C503.2 220.41 499.72 210.51 496.65 205.85C486.78 190.88 470.81 180.75 455.08 171.56L453.63 194.08L449.67 253.84L443.7 337.92L441.68 368.39L434.27 474.15C433.85 480.16 432.88 485.44 433.13 491.46L437.8 472.23L443.77 448.57L459.15 386.78L465.5 361.02L471.05 338.44L474.99 322.86H475ZM395.93 665.21L399.04 621.5L405.91 530.89L412.31 444.53L417.39 372.35L420.13 334.95L425.72 252.15L426.99 236.8C427.01 236.55 426.9 235.8 426.88 235.61C426.86 235.48 426.56 235.87 426.48 235.97L426.01 236.47C422.09 240.69 418.25 244.56 413.81 248.29C400.65 259.31 386.31 268.24 370.85 275.7C362.92 279.53 355.22 282.83 346.94 285.63L333.45 290.17C302.03 300.76 260.77 304.83 227.566 304.39C196.971 303.99 166.938 299.67 137.597 291.23C112.023 283.87 92.564 276.18 69.603 262.67C52.118 252.38 36.863 239.51 24.06 223.61C23.783 226.51 23.98 228.54 23.98 231.31L24.114 659.54C24.118 677.24 28.697 690.32 40.37 703.42C44.761 708.35 49.782 712.41 55.138 716.38C76.228 731.99 102.428 743.06 127.627 750.21C144.946 755.12 165.267 759.69 183.149 761.79C202.443 764.05 221.343 764.96 240.771 764.04C256.607 763.29 271.9 762.17 287.46 759.24C306.25 755.7 324.43 750.91 342.15 743.87C358.88 737.22 376.58 726.86 386.45 711.44C391.32 703.81 394.88 695.24 395.2 686.19L395.94 665.21H395.93Z" fill="black"/>
<path d="M198.15 524.45C198.15 526.05 196.833 526.95 195.519 526.83C186.58 526.03 178.196 524.83 169.31 523.5C150.62 520.69 132.559 516.62 114.516 510.91C98.269 505.78 82.447 500.4 67.406 492.48L56.247 486.61C55.309 486.12 54.562 485.15 54.562 483.98L54.603 344.16C77.336 356.51 97.367 366 121.704 373.45C142.043 380.2 162.797 384.46 184.048 386.96C187.818 387.41 191.133 387.97 194.76 388.71C196.551 389.08 198.101 390.6 198.101 392.71L198.124 508.76L198.141 524.45H198.15Z" fill="black"/>
<path d="M391.64 315.97C391.59 320.19 391.37 323.82 390.96 327.93C386.56 330.52 382.51 332.83 377.82 335.01C334.13 355.26 285.2 364.96 236.95 365.33C216.486 365.49 196.464 364.35 176.286 361.11C157.024 358.02 138.36 353.97 119.906 347.84C109.641 344.43 99.965 340.98 90.079 336.59C78.384 331.41 67.435 325.65 56.155 319.71C55.253 319 54.534 317.85 54.525 316.64L54.328 290.04L76.981 301.87C94.568 311.05 112.714 318.25 131.717 324.02C169.742 335.28 206.699 339.75 246.313 338.6C268.95 337.94 290.82 335.27 312.76 330.01C324.69 327.14 336.07 323.85 347.56 319.63C360.8 314.75 373.44 309.38 385.96 303.01C387.88 302.03 389.46 301.46 391.86 300.64L391.65 315.98L391.64 315.97Z" fill="black"/>
<path d="M234.033 405.22C230.973 405.24 228.57 402.67 227.659 400.91C226.359 398.41 226.73 395.29 228.49 393.18C230.25 391.07 232.899 390.09 235.691 390.09C249.682 390.1 263.15 389.07 277.07 387.52C291.75 385.88 305.67 383.4 319.99 380.05C335.19 376.5 349.65 371.96 364.05 365.97C369.71 363.61 374.86 361.23 380.18 358.26C381.83 357.34 383.84 357.04 385.56 357.79C387.08 358.45 388.41 360.04 388.81 362.07C389.47 365.44 388.85 369.78 385.67 371.73C379.91 375.26 373.88 377.58 367.62 380.23C352.27 386.74 336.75 391.64 320.38 395.36C292.03 401.82 263.25 405.05 234.029 405.22H234.033Z" fill="black"/>
<path d="M234.212 437.89C229.964 437.82 227.002 434.37 226.841 430.78C226.703 427.63 229.28 423.19 233.305 423.1C257.499 422.52 281.54 420.77 305.36 415.75C318.9 412.9 331.79 409.53 344.95 405.38C356.54 401.74 367.34 397.06 378.26 391.82C380.99 390.51 384.01 391.2 385.42 394.12C386.83 397.06 386.6 400.97 384.74 403.81C383.64 405.48 381.81 406.35 379.96 407.23C361.63 416.03 342.67 422.57 322.82 427.28C295.8 433.69 262.15 438.34 234.212 437.89Z" fill="black"/>
<path d="M227.614 466.3C225.899 463.17 227.266 459.94 229.567 457.9C231.233 456.42 232.939 455.81 235.294 455.8C269.03 455.73 302.34 450.46 334.74 440.87C349.12 436.62 362.93 431.61 376.41 425.02C378.69 423.91 380.94 424.55 382.56 426.54C385.06 429.61 384.73 437.42 379.73 439.77C368.08 445.24 356.3 450.16 343.85 453.96C308.43 464.79 271.9 470.32 234.918 470.72C231.84 470.75 229.004 468.84 227.614 466.31V466.3Z" fill="black"/>
<path d="M235.029 503.28C231.111 503.38 227.899 500.73 227.127 497.26C226.229 493.2 229.463 488.5 234.051 488.47C267.71 488.21 300.81 483.3 333.18 474.02C338.85 472.39 343.91 470.9 349.37 468.85C357.61 465.75 365.51 462.58 373.45 458.77C375.72 457.69 378.4 458.21 379.95 460.24C383.39 464.75 381.71 471.02 376.61 473.48C367.06 478.08 357.67 482.05 347.48 485.29C326.03 492.1 304.34 497.08 281.99 500.02C266.36 502.08 251.075 502.88 235.034 503.28H235.029Z" fill="black"/>
<path d="M329.94 522.83C300.07 530.9 264.9 535.5 234.199 535.53C230.263 535.54 227.172 531.96 227.038 528.7C226.886 525.05 229.352 520.73 233.542 520.72C270.66 520.58 307.3 514.86 342.56 503.45C353.12 500.03 362.93 495.81 372.93 491.24C376.34 489.68 379.26 494.19 379.55 496.8C380.06 501.43 378.43 504.74 374.35 506.69C360.09 513.52 345.3 518.68 329.94 522.83Z" fill="black"/>
<path d="M234.295 568.19C229.806 568.25 226.943 564.04 226.907 560.86C226.858 556.52 230.065 553.36 234.389 553.33C242.126 553.27 249.421 552.78 257.149 552.19C295.04 549.31 334.52 540.65 369.02 524.44C370.5 523.74 372.55 523.35 374.1 524.17C375.19 524.75 376.4 526.38 376.83 527.72C378.62 533.37 376.05 537.74 370.97 539.95C359.33 545.03 347.73 549.58 335.4 553.13C302.53 562.63 268.78 567.75 234.295 568.19Z" fill="black"/>
<path d="M333.23 586C300.35 595.6 270.78 599.99 236.589 600.82C232.738 600.91 229.415 599.69 227.681 596.28C226.547 594.04 226.77 591.57 228.128 589.27C229.173 587.5 231.268 585.93 233.993 585.84C250.017 585.32 265.7 584.56 281.63 582.14C301.89 579.06 321.53 574.5 340.95 568.04C350.32 564.92 358.98 561.07 367.88 557.04C370.58 555.81 373.5 556.57 374.79 559.49C376.04 562.3 376.17 566.15 374.28 568.88C372.98 570.77 370.76 572.03 368.62 573.03C357.15 578.45 345.43 582.43 333.22 586H333.23Z" fill="black"/>
<path d="M234.122 633.43C229.909 632.64 226.952 629.61 227.091 625.68C227.22 621.95 230.11 618.55 234.251 618.47C261.6 617.9 288.55 614.49 315.13 608.05L336.31 601.8C343.53 599.67 350.4 597.14 357.24 594.08L366.92 589.76C370.62 589.18 373.08 591.8 373.44 595.26C373.91 599.77 372.06 603.38 367.87 605.38C328.62 624.03 277.8 632.7 234.117 633.43H234.122Z" fill="black"/>
<path d="M198.61 623.53C198.302 628.12 195.228 630.92 190.73 630.37C149.918 625.37 112.38 617.57 74.959 600.02C68.866 597.16 63.183 594.34 57.452 590.96C52.234 587.89 52.864 579.99 55.947 577.35C57.885 575.69 60.409 576.06 62.522 577.3C66.69 579.76 70.675 581.8 75.079 583.99C96.164 594.44 118.161 601.81 141.185 606.84C153.938 609.62 166.348 611.85 179.267 613.6L192.311 615.37C196.483 615.94 198.9 619.26 198.614 623.53H198.61Z" fill="black"/>
<path d="M198.435 656.95C198.234 658.99 197.26 660.99 195.943 662.07C194.464 663.27 192.4 663.53 190.296 663.27C173.343 661.19 156.761 658.63 140.045 654.87C112.992 648.79 81.373 638.69 57.916 623.91C52.842 620.71 52.864 613.81 55.482 610.62C56.75 609.07 58.845 608.4 60.713 609.51C75.593 618.29 91.098 625.36 107.649 630.47L125.339 635.92C139.129 640.18 153.076 642.88 167.397 644.94L191.726 648.43C196.054 649.05 198.909 652.13 198.44 656.95H198.435Z" fill="black"/>
<path d="M191.624 597.31C171.066 595.43 146.024 590.41 125.863 585.39C117.581 583.33 109.871 581 101.803 578.24C84.39 572.29 74.192 568.15 58.19 559.08C54.322 556.89 52.9189 552.72 54.1209 548.53C54.5719 546.96 55.68 545.41 56.747 544.83C58.494 543.89 60.522 543.89 62.211 544.88C76.885 553.45 92.364 559.84 108.678 565.03C135.588 573.6 163.142 579.19 191.173 582.29C196.19 582.84 199.026 586.36 198.508 591.35C198.151 594.79 195.6 597.68 191.629 597.32L191.624 597.31Z" fill="black"/>
<path d="M191.02 696.42L169.069 693.39C149.301 690.66 118.098 682.81 99.363 676C85.725 671.04 68.473 664.07 56.702 655.8C53.315 653.42 53.463 647.84 55.312 644.7C56.684 642.37 59.377 641.68 61.589 642.89L70.983 647.99C80.873 653.36 91.018 657.44 101.65 661.3C114.609 666.01 127.506 669.58 140.952 672.82C157.512 676.8 173.884 679.62 190.819 680.85C195.724 681.2 198.873 684.71 198.57 689.64C198.337 693.38 195.461 697.04 191.02 696.43V696.42Z" fill="black"/>
<path d="M198.625 722.45C198.491 724.24 197.468 726.44 196.36 727.38C194.671 728.82 192.657 728.95 190.436 728.7C168.663 726.33 147.252 722.8 126.181 716.66C100.454 709.16 82.237 702.74 58.834 689.7C53.902 686.95 52.9549 680.35 56.2379 676.37C58.0119 674.23 60.116 674.35 62.309 675.52C74.076 681.8 85.748 687.62 98.288 692.35C129.022 703.92 158.246 710.3 190.789 713.76C195.511 714.27 199.045 716.76 198.62 722.45H198.625Z" fill="black"/>
<path d="M198.497 557.37C198.461 559.35 197.702 561.35 196.692 562.39C195.258 563.87 193.36 564.32 191.166 564.1C158.221 560.76 124.061 553.59 92.849 542.26C81.006 537.96 69.995 532.63 58.974 526.62C54.083 523.96 52.072 518.09 55.311 513.47C57.031 511.02 59.926 511.03 62.441 512.42C81.614 523.06 101.779 530.71 122.931 536.54C134.603 539.76 145.811 542.43 157.721 544.52C169.036 546.51 179.999 548.25 191.408 549.23C195.701 549.59 198.573 552.77 198.488 557.37H198.497Z" fill="black"/>
<path d="M326.18 652.8C296.36 661.02 265.37 665.96 234.449 666.17C229.982 666.2 226.815 662.53 226.958 658.6C227.105 654.41 230.447 651.32 234.851 651.31C252.702 651.28 270.02 649.37 287.58 646.28C298.49 644.37 308.76 642.19 319.36 639.24C324.71 637.74 329.73 636.46 334.96 634.58C344.38 631.17 353.47 627.69 362.54 623.41C364.52 622.47 366.47 622.29 368.21 623.32C369.95 624.36 371.12 626.17 371.26 628.45C371.51 632.23 370.11 635.89 366.62 637.69C354.45 643.94 339.46 649.15 326.18 652.81V652.8Z" fill="black"/>
<path d="M234.229 698.56C229.641 698.69 226.809 694.04 227.01 690.69C227.287 686.08 230.745 683.46 235.306 683.4C250.369 683.21 264.98 681.52 279.9 679.61C296.96 677.43 319.07 671.88 335.36 666.32C339.59 664.87 343.67 663.64 347.73 661.89L362.57 655.48C364.06 654.84 366.27 655.72 367.29 656.73C368.29 657.73 368.96 659.47 369.16 661.01C369.72 665.45 367.92 669.01 363.98 670.87C356.87 674.23 349.89 677.1 342.38 679.67C330.19 683.85 318.29 687.56 305.6 690.29C282.13 695.34 258.54 697.87 234.233 698.56H234.229Z" fill="black"/>
<path d="M341.53 711.73C327.77 717.22 303.97 723.03 289.1 725.45C270.87 728.41 252.863 730.37 234.472 730.82C229.518 730.94 225.94 725.68 227.387 721.33C228.28 718.65 230.925 716.06 234.021 715.97C263.2 715.13 291.97 711.22 320.03 703.04C333.37 699.14 346.09 694.3 358.64 688.66C361.74 687.27 364.7 687.72 366.34 691.07C367.87 694.19 368 698.59 365.1 701.13C363.31 702.69 360.95 703.98 358.69 704.89L341.52 711.73H341.53Z" fill="black"/>
</g>
<path d="M646.11 211.03C646.11 203.11 644.21 197.59 640.42 194.45C636.62 191.15 629.44 189.5 618.88 189.5V182.82H720.36V189.5C712.93 189.5 707.24 190.24 703.28 191.73C699.49 193.21 696.76 195.52 695.11 198.66C693.63 201.63 692.89 205.75 692.89 211.03V352.36C692.89 357.64 693.63 361.85 695.11 364.98C696.76 367.95 699.49 370.18 703.28 371.66C707.24 373.15 712.93 373.89 720.36 373.89V380.82H618.88V373.89C629.44 373.89 636.62 372.32 640.42 369.19C644.21 365.89 646.11 360.28 646.11 352.36V211.03ZM804.51 356.57C808.64 363.5 813.17 368.12 818.12 370.43C823.07 372.74 829.76 373.89 838.17 373.89V380.82H739.42V373.89C745.19 373.89 749.24 373.64 751.55 373.15C753.86 372.49 755.01 371.33 755.01 369.68C755.01 368.53 754.52 366.96 753.53 364.98C752.54 363 751.55 361.27 750.56 359.78C749.73 358.3 749.15 357.23 748.82 356.57L699.07 275.38L764.42 203.86C765.24 202.87 766.48 201.38 768.13 199.4C769.94 197.42 771.18 195.93 771.84 194.94C772.67 193.95 773.08 193.13 773.08 192.47C773.08 191.31 771.84 190.57 769.37 190.24C767.06 189.75 762.77 189.5 756.5 189.5V182.82H819.11V189.5C810.2 189.5 802.94 190.41 797.33 192.22C791.72 194.04 786.28 197.92 781 203.86L740.66 248.9L804.51 356.57Z" fill="black"/>
<path d="M885.23 216.23C879.95 216.23 875.41 214.33 871.62 210.54C867.82 206.74 865.93 202.21 865.93 196.93C865.93 191.64 867.82 187.19 871.62 183.56C875.41 179.76 879.95 177.87 885.23 177.87C890.51 177.87 894.97 179.76 898.6 183.56C902.39 187.19 904.29 191.64 904.29 196.93C904.29 202.21 902.39 206.74 898.6 210.54C894.97 214.33 890.51 216.23 885.23 216.23ZM903.55 352.36C903.55 358.3 904.04 362.75 905.03 365.72C906.19 368.69 908.08 370.84 910.72 372.16C913.36 373.31 917.41 373.89 922.85 373.89V380.82H846.87V373.89C852.31 373.89 856.35 373.31 859 372.16C861.64 370.84 863.45 368.69 864.44 365.72C865.6 362.75 866.17 358.3 866.17 352.36V289C866.17 282.56 865.93 278.19 865.43 275.88C864.94 273.57 863.62 272.41 861.47 272.41C859.16 272.41 855.61 273.73 850.83 276.37L847.61 270.43L899.34 243.46L903.55 247.66V352.36Z" fill="black"/>
<path d="M994.7 385.77C981.5 385.77 969.95 382.8 960.05 376.86C950.15 370.76 942.48 362.34 937.03 351.62C931.59 340.72 928.86 328.35 928.86 314.49C928.86 300.63 931.59 288.34 937.03 277.61C942.48 266.89 950.15 258.55 960.05 252.61C969.95 246.51 981.5 243.46 994.7 243.46C1007.9 243.46 1019.45 246.51 1029.35 252.61C1039.41 258.55 1047.17 266.89 1052.61 277.61C1058.06 288.34 1060.78 300.63 1060.78 314.49C1060.78 328.35 1058.06 340.72 1052.61 351.62C1047.17 362.34 1039.41 370.76 1029.35 376.86C1019.45 382.8 1007.9 385.77 994.7 385.77ZM998.16 372.41C1005.26 372.41 1010.37 369.6 1013.51 363.99C1016.81 358.38 1018.46 349.14 1018.46 336.27C1018.46 330.49 1018.05 322.66 1017.22 312.76C1015.57 292.46 1012.77 278.02 1008.81 269.44C1004.85 260.86 999.07 256.57 991.48 256.57C984.22 256.57 978.94 259.38 975.64 264.99C972.51 270.6 970.94 279.84 970.94 292.71C970.94 298.32 971.35 306.24 972.18 316.47C973.83 336.76 976.63 351.2 980.59 359.78C984.55 368.2 990.41 372.41 998.16 372.41Z" fill="black"/>
<path d="M1073.98 331.81H1080.91C1083.06 343.69 1087.84 353.51 1095.27 361.27C1102.69 368.86 1111.85 372.65 1122.74 372.65C1132.15 372.65 1136.85 368.78 1136.85 361.02C1136.85 356.57 1135.03 352.36 1131.4 348.4C1127.77 344.44 1120.51 337.84 1109.62 328.6C1109.46 328.43 1108.14 327.36 1105.66 325.38C1097.91 318.94 1091.97 313.66 1087.84 309.54C1083.72 305.41 1080.34 300.88 1077.7 295.93C1075.22 290.81 1073.98 284.95 1073.98 278.35C1073.98 267.63 1077.53 259.13 1084.63 252.86C1091.72 246.59 1101.29 243.46 1113.34 243.46C1119.28 243.46 1124.31 244.2 1128.43 245.68C1132.56 247 1136.52 248.74 1140.31 250.88C1143.28 252.53 1145.26 253.36 1146.25 253.36C1147.9 253.36 1148.89 252.86 1149.22 251.87C1149.55 250.72 1149.72 248.74 1149.72 245.93H1156.65V288.5H1149.72C1147.57 279.26 1143.2 271.59 1136.6 265.48C1130.17 259.38 1122.74 256.33 1114.33 256.33C1110.53 256.33 1107.56 257.23 1105.42 259.05C1103.44 260.7 1102.45 262.84 1102.45 265.48C1102.45 268.62 1103.77 271.67 1106.41 274.64C1109.05 277.61 1114.33 282.4 1122.25 289C1122.74 289.33 1123.32 289.82 1123.98 290.48C1124.8 291.14 1125.71 291.88 1126.7 292.71C1137.1 301.29 1144.69 307.89 1149.47 312.51C1154.26 317.13 1158.05 322.24 1160.86 327.85C1163.83 333.46 1165.31 339.98 1165.31 347.41C1165.31 359.95 1161.35 369.52 1153.43 376.12C1145.51 382.55 1135.69 385.77 1123.98 385.77C1117.05 385.77 1111.19 385.03 1106.41 383.54C1101.62 382.22 1096.92 380.49 1092.3 378.35C1089 376.7 1086.69 375.87 1085.37 375.87C1083.55 375.87 1082.32 376.45 1081.66 377.6C1081.16 378.76 1080.91 380.66 1080.91 383.3H1073.98V331.81Z" fill="black"/>
<path d="M1227.67 352.36C1227.67 358.3 1228.16 362.75 1229.15 365.72C1230.31 368.69 1232.21 370.84 1234.85 372.16C1237.49 373.31 1241.53 373.89 1246.98 373.89V380.82H1170.99V373.89C1176.44 373.89 1180.48 373.31 1183.12 372.16C1185.76 370.84 1187.57 368.69 1188.56 365.72C1189.72 362.75 1190.3 358.3 1190.3 352.36V223.41C1190.3 216.97 1190.05 212.6 1189.55 210.29C1189.06 207.98 1187.74 206.83 1185.59 206.83C1183.28 206.83 1179.74 208.15 1174.95 210.79L1171.73 204.85L1223.46 177.87L1227.67 182.07V352.36ZM1306.38 356.07C1310.17 363.17 1314.13 367.95 1318.26 370.43C1322.38 372.74 1327.41 373.89 1333.35 373.89V380.82H1252.67V373.89C1257.29 373.89 1260.59 373.64 1262.57 373.15C1264.55 372.49 1265.54 371.33 1265.54 369.68C1265.54 368.53 1265.04 366.96 1264.05 364.98C1263.23 363 1262.32 361.19 1261.33 359.54C1260.51 357.89 1259.85 356.65 1259.35 355.82L1232.62 307.06L1270.74 268.45C1271.56 267.63 1273.05 266.23 1275.19 264.25C1277.34 262.27 1278.82 260.78 1279.65 259.79C1280.47 258.64 1280.88 257.81 1280.88 257.32C1280.88 256.33 1279.89 255.75 1277.91 255.58C1276.1 255.25 1272.63 255.09 1267.52 255.09V248.41H1321.97V255.09C1315.37 255.09 1309.51 256 1304.4 257.81C1299.45 259.46 1294.25 263.09 1288.8 268.7L1269.5 288.5L1306.38 356.07Z" fill="black"/>
<path d="M715.9 663.91C724.15 663.91 730.34 662.1 734.47 658.47C738.76 654.67 742.72 647.82 746.35 637.92L752.54 640.15L743.13 666.88L731.99 697.82H618.14V690.89C637.45 670.6 652.63 653.93 663.68 640.89C674.74 627.69 683.56 614.91 690.16 602.53C696.76 589.99 700.06 577.95 700.06 566.4C700.06 554.19 697.26 544.86 691.65 538.43C686.2 531.99 678.45 528.78 668.38 528.78C657.33 528.78 648.42 532.57 641.65 540.16C635.05 547.59 631.01 558.15 629.53 571.84H622.6C622.6 556.33 625.57 542.8 631.51 531.25C637.61 519.54 645.94 510.54 656.5 504.27C667.23 498 679.36 494.87 692.89 494.87C708.56 494.87 720.85 499.24 729.76 507.98C738.84 516.57 743.38 528.12 743.38 542.64C743.38 555.18 739.5 568.21 731.75 581.74C723.99 595.11 714.17 608.22 702.29 621.09C690.41 633.8 675.97 647.74 658.98 662.92V663.67L715.9 663.91Z" fill="black"/>
<path d="M842.6 499.82H872.79V613.92H898.28V647.33H872.79V669.36C872.79 675.3 873.29 679.75 874.28 682.72C875.27 685.69 877.08 687.84 879.72 689.16C882.53 690.31 886.65 690.89 892.1 690.89V697.82H812.15V690.89C817.6 690.89 821.64 690.31 824.28 689.16C827.09 687.84 828.98 685.69 829.97 682.72C830.96 679.75 831.46 675.3 831.46 669.36V647.33H762.16V613.92L842.6 499.82ZM831.46 534.72L778 613.17V613.92H831.46V534.72Z" fill="black"/>
<path d="M941.5 702.77C936.22 702.77 931.68 700.87 927.89 697.08C924.09 693.28 922.19 688.75 922.19 683.47C922.19 678.19 924.09 673.73 927.89 670.1C931.68 666.31 936.22 664.41 941.5 664.41C946.78 664.41 951.23 666.31 954.86 670.1C958.66 673.73 960.56 678.19 960.56 683.47C960.56 688.75 958.66 693.28 954.86 697.08C951.23 700.87 946.78 702.77 941.5 702.77Z" fill="black"/>
</svg>
